<svg xmlns="http://www.w3.org/2000/svg" version="1.1" xmlns:xlink="http://www.w3.org/1999/xlink" xmlns:svgjs="http://svgjs.dev/svgjs" width="2000" height="1247" viewBox="0 0 2000 1247"><g transform="matrix(1,0,0,1,-1.2120625601049824,0.504858299595071)"><svg viewBox="0 0 396 247" data-background-color="#282634" preserveAspectRatio="xMidYMid meet" height="1247" width="2000" xmlns="http://www.w3.org/2000/svg" xmlns:xlink="http://www.w3.org/1999/xlink"><g id="tight-bounds" transform="matrix(1,0,0,1,0.23998838690079083,-0.09999999999999432)"><svg viewBox="0 0 395.52 247.2" height="247.2" width="395.52"><g><svg></svg></g><g><svg viewBox="0 0 395.52 247.2" height="247.2" width="395.52"><g><g><path xmlns="http://www.w3.org/2000/svg" d="M158.616 238.781c-5.773 0-11.94-2.956-18.498-8.868-6.605-5.866-12.679-13.879-18.221-24.041l-25.871-46.905h28.661l21.112 33.395c6.697 11.085 13.233 18.752 19.606 23.002 6.328 4.295 14.11 6.443 23.348 6.443l1.386 1.385-2.078 11.778zM55.04 190.284c0 8.776 0.577 15.057 1.732 18.844 1.155 3.834 3.349 6.374 6.582 7.621 3.233 1.293 8.776 1.94 16.627 1.94l0.693 1.386-3.118 14.549c-2.771-0.231-8.314-0.462-16.627-0.693-8.314-0.231-16.974-0.346-25.981-0.346-8.083 0-15.242 0.115-21.477 0.346-6.235 0.231-10.392 0.462-12.471 0.693l3.118-15.588c7.39-0.924 12.933-2.194 16.627-3.811 3.695-1.617 6.235-4.226 7.621-7.829 1.386-3.556 2.078-8.799 2.079-15.727l0.078-32.702 25.147 0zM30.791 46.178c0-7.39-0.854-12.355-2.563-14.896-1.755-2.54-5.173-3.81-10.254-3.81-2.309 0-4.619 0.115-6.928 0.346-2.309 0.231-3.926 0.346-4.85 0.346l-0.693-1.385 2.425-15.242c2.771 0.231 7.967 0.462 15.589 0.693 7.621 0.231 15.242 0.346 22.863 0.346 7.852 0 16.12-0.185 24.802-0.554 8.637-0.323 14.572-0.6 17.806-0.832 21.477 0 38.451 4.85 50.922 14.55 12.471 9.699 18.706 22.978 18.706 39.837 0 7.93-1.452 15.482-4.357 22.656l-26.488 0c1.396-4.921 2.093-10.395 2.093-16.421 0-30.484-21.131-45.726-63.393-45.726-2.309 0-3.857 0.508-4.642 1.524-0.831 1.062-1.363 3.21-1.593 6.443-1.198 20.36-2.089 38.42-2.673 54.18l-26.872 0zM251.107 224.232c-15.242-8.776-27.02-21.2-35.334-37.274-4.423-8.526-7.669-17.857-9.739-27.991l32.454 0c1.3 4.623 2.85 9.057 4.652 13.303 6.466 15.242 15.704 27.02 27.712 35.334 12.009 8.314 25.865 12.471 41.569 12.471 8.314 0 15.935-0.993 22.863-2.979 6.928-1.94 12.771-4.065 17.528-6.374 4.711-2.309 7.067-3.58 7.067-3.811v-42.262c0-2.09-0.085-3.985-0.255-5.682l25.247 0c-0.726 7.281-1.089 16.912-1.09 28.892 0 13.394 0.808 23.556 2.425 30.484l-2.078 3.117c0 0.231-4.088 1.778-12.263 4.642-8.221 2.91-18.267 5.519-30.138 7.829-11.916 2.309-24.341 3.464-37.273 3.464-20.323 0-38.105-4.388-53.347-13.163zM218.545 66.962c10.161-18.475 24.48-32.863 42.954-43.162 18.475-10.254 39.606-15.381 63.393-15.381 8.545 0 17.782 0.624 27.713 1.871 9.93 1.293 18.475 2.563 25.634 3.81 7.159 1.293 11.778 2.171 13.856 2.633l1.386 2.078c-0.462 1.386-1.27 4.734-2.425 10.046-1.155 5.312-2.356 12.24-3.603 20.785-1.293 8.545-2.286 17.551-2.979 27.02l-16.281 1.385c0.231-1.155 0.462-3.418 0.693-6.789 0.231-3.326 0.346-7.298 0.346-11.917 0-10.623-4.088-18.36-12.263-23.209-8.221-4.85-21.57-7.275-40.044-7.275-26.327 0-46.811 7.898-61.453 23.695-8.866 9.563-15.056 21.457-18.57 35.681l-27.447 0c2.354-7.443 5.384-14.534 9.09-21.271z" fill="#ffffff" fill-rule="nonzero" stroke="none" stroke-width="1" stroke-linecap="butt" stroke-linejoin="miter" stroke-miterlimit="10" stroke-dasharray="" stroke-dashoffset="0" font-family="none" font-weight="none" font-size="none" text-anchor="none" style="mix-blend-mode: normal" data-fill-palette-color="tertiary"></path></g></g><g transform="matrix(1,0,0,1,0,96.22275238781613)"><svg viewBox="0 0 395.52 54.75449522436772" height="54.75449522436772" width="395.52"><g><svg viewBox="0 0 395.52 54.75449522436772" height="54.75449522436772" width="395.52"><g><svg viewBox="0 0 395.52 54.75449522436772" height="54.75449522436772" width="395.52"><g><svg viewBox="0 0 395.52 54.75449522436772" height="54.75449522436772" width="395.52"><g><svg viewBox="0 0 395.52 54.75449522436772" height="54.75449522436772" width="395.52"><g><svg viewBox="0 0 395.52 54.75449522436772" height="54.75449522436772" width="395.52"><g transform="matrix(1,0,0,1,0,0)"><svg width="395.52" viewBox="2.8499999046325684 -37.099998474121094 355.0099792480469 49.1519660949707" height="54.75449522436772" data-palette-color="#ffffff"><path d="M25.6 0.8Q24.35 0.8 22.93-0.48 21.5-1.75 20.3-3.95L20.3-3.95 14.95-13.65 10.8-13.65 10.65-6.2Q10.65-4.3 10.9-3.48 11.15-2.65 11.85-2.38 12.55-2.1 14.25-2.1L14.25-2.1 14.35-1.9 13.9 0.2Q13.3 0.15 11.5 0.1 9.7 0.05 7.75 0.05L7.75 0.05Q6 0.05 4.65 0.1 3.3 0.15 2.85 0.2L2.85 0.2 3.3-2.05Q4.9-2.25 5.7-2.6 6.5-2.95 6.8-3.73 7.1-4.5 7.1-6L7.1-6 7.15-27Q7.15-28.6 6.78-29.15 6.4-29.7 5.3-29.7L5.3-29.7Q4.8-29.7 4.3-29.65 3.8-29.6 3.6-29.6L3.6-29.6 3.5-29.8 3.85-32Q4.45-31.95 6.1-31.9 7.75-31.85 9.4-31.85L9.4-31.85Q11.1-31.85 12.98-31.93 14.85-32 15.55-32.05L15.55-32.05Q20.2-32.05 22.9-29.95 25.6-27.85 25.6-24.2L25.6-24.2Q25.6-21.2 23.68-18.7 21.75-16.2 18.25-14.6L18.25-14.6 23.75-5.9Q25.2-3.5 26.58-2.58 27.95-1.65 29.95-1.65L29.95-1.65 30.15-1.45 29.85 0.25 25.6 0.8ZM16.05-15.95Q16.05-15.8 17.55-16.6 19.05-17.4 20.25-19.05 21.45-20.7 21.45-23.3L21.45-23.3Q21.45-29.9 12.3-29.9L12.3-29.9Q11.8-29.9 11.63-29.68 11.45-29.45 11.4-28.75L11.4-28.75Q10.95-21.1 10.9-16.45L10.9-16.45 16.05-15.95ZM48.15 0.6Q44.1 0.6 43.7-3.45L43.7-3.45 43.5-3.5Q41.7-1.7 40.22-0.65 38.75 0.4 38 0.4L38 0.4Q35.2 0.4 33.4-1.35 31.6-3.1 31.6-5.8L31.6-5.8Q31.6-7.25 32.32-8.35 33.05-9.45 34.25-9.8L34.25-9.8 43.75-12.4 43.8-14.6Q43.8-17.1 42.65-18.5 41.5-19.9 39.4-19.9L39.4-19.9Q38-19.9 36.45-19.25 34.9-18.6 33.4-17.4L33.4-17.4 33.15-17.55 32.55-19.7Q34.9-21.05 37.27-22.13 39.65-23.2 40.7-23.2L40.7-23.2Q43.95-23.2 45.8-21.5 47.65-19.8 47.65-16.75L47.65-16.75Q47.65-15.65 47.3-12.25L47.3-12.25Q46.75-6.75 46.75-5.25L46.75-5.25Q46.75-4.15 47.3-3.55 47.85-2.95 48.8-2.95L48.8-2.95Q49.6-2.95 50.45-3.33 51.3-3.7 51.8-4.2L51.8-4.2 52.5-3.4Q51.75-2.15 50.57-0.98 49.4 0.2 48.15 0.6L48.15 0.6ZM38.85-3Q39.8-3 41.07-3.68 42.35-4.35 43.4-5.4L43.4-5.4 43.65-10.5 36.85-8.45Q35.4-8 35.4-6.35L35.4-6.35Q35.4-4.9 36.37-3.95 37.35-3 38.85-3L38.85-3ZM53.69 12.05Q53.29 12.05 52.39 10.88 51.49 9.7 51.49 9.2L51.49 9.2 51.74 8.85Q54.54 8.85 56.97 6.53 59.39 4.2 61.14 0L61.14 0Q57.29-12.2 54.94-18.4L54.94-18.4Q54.49-19.65 53.67-20.2 52.84-20.75 51.54-20.8L51.54-20.8 51.44-21 51.74-22.65 55.89-22.6Q57.74-22.6 59.57-22.75 61.39-22.9 61.89-22.95L61.89-22.95 61.99-22.7 61.69-21.15Q59.99-21.1 59.42-20.83 58.84-20.55 58.84-19.85L58.84-19.85Q58.84-19.05 59.82-15.7 60.79-12.35 61.84-9.03 62.89-5.7 63.24-4.7L63.24-4.7 63.44-4.7Q69.19-18.45 69.19-19.65L69.19-19.65Q69.19-20.95 67.3-20.95L67.3-20.95 65-20.95 64.89-21.15 65.19-22.8Q65.64-22.75 67.19-22.68 68.75-22.6 70.3-22.6L70.3-22.6 74.55-22.65 74.19-20.8Q73.09-20.6 72.52-20.03 71.94-19.45 71.39-17.95L71.39-17.95 65.05-2.75Q62.44 3.55 60.79 6.6 59.14 9.65 57.54 10.88 55.94 12.1 53.69 12.05L53.69 12.05ZM90.44-1.45Q91.94-1.85 92.59-2.63 93.24-3.4 93.24-4.7L93.24-4.7 93.44-14.6Q93.44-17.1 92.37-18.45 91.29-19.8 89.29-19.8L89.29-19.8Q87.69-19.8 86.04-18.98 84.39-18.15 83.14-17.2L83.14-17.2Q82.69-6.85 82.69-4.9L82.69-4.9Q82.69-3.35 83.09-2.73 83.49-2.1 84.49-2.1L84.49-2.1Q85.04-2.1 85.54-2.15 86.04-2.2 86.24-2.2L86.24-2.2 86.34-2 85.89 0.15Q85.44 0.1 84.14 0.05 82.84 0 81.34 0L81.34 0Q79.69 0 78.29 0.05 76.89 0.1 76.39 0.1L76.39 0.1 76.69-1.95Q78.14-2.1 78.72-2.7 79.29-3.3 79.29-4.7L79.29-4.7 79.29-16.9Q79.29-18.6 78.74-19.28 78.19-19.95 76.84-19.95L76.84-19.95 76.29-19.95 76.14-20.15 76.29-21.8Q78.44-22.15 80.57-22.63 82.69-23.1 83.29-23.25L83.29-23.25 83.59-22.85Q83.49-22.55 83.29-21.58 83.09-20.6 83.04-19.55L83.04-19.55 83.14-19.4Q88.74-23.2 90.49-23.2L90.49-23.2Q92.89-23.2 94.54-22.18 96.19-21.15 96.89-19.25L96.89-19.25Q98.69-20.55 100.94-21.88 103.19-23.2 104.44-23.2L104.44-23.2Q107.59-23.2 109.44-21.45 111.29-19.7 111.29-16.75L111.29-16.75Q111.29-16.25 110.99-12.15L110.99-12.15Q110.59-6.95 110.59-4.9L110.59-4.9Q110.59-3.35 110.99-2.73 111.39-2.1 112.39-2.1L112.39-2.1Q112.94-2.1 113.44-2.15 113.94-2.2 114.14-2.2L114.14-2.2 114.24-2 113.79 0.15Q113.34 0.1 112.04 0.05 110.74 0 109.24 0L109.24 0Q107.94 0 106.37 0.13 104.79 0.25 104.29 0.3L104.29 0.3 104.54-1.75Q105.99-2 106.59-2.65 107.19-3.3 107.19-4.7L107.19-4.7 107.39-14.6Q107.39-17.1 106.32-18.45 105.24-19.8 103.24-19.8L103.24-19.8Q100.64-19.8 97.19-17.3L97.19-17.3 96.64-4.9Q96.64-3.45 97.04-2.78 97.44-2.1 98.39-2.1L98.39-2.1Q98.94-2.1 99.44-2.15 99.94-2.2 100.14-2.2L100.14-2.2 100.24-2 99.84 0.15Q99.39 0.1 98.14 0.05 96.89 0 95.39 0L95.39 0Q94.09 0 92.42 0.25 90.74 0.5 90.24 0.6L90.24 0.6 90.44-1.45ZM127.29 0.6Q124.44 0.6 122.24-0.8 120.04-2.2 118.81-4.73 117.59-7.25 117.59-10.5L117.59-10.5Q117.59-14 119.11-16.93 120.64-19.85 123.29-21.53 125.94-23.2 129.19-23.2L129.19-23.2Q131.99-23.2 134.22-21.8 136.44-20.4 137.66-17.88 138.89-15.35 138.89-12.1L138.89-12.1Q138.89-8.6 137.37-5.68 135.84-2.75 133.19-1.07 130.54 0.6 127.29 0.6L127.29 0.6ZM128.69-1.85Q131.49-1.85 133.14-4.13 134.79-6.4 134.79-10.3L134.79-10.3Q134.79-13.25 133.89-15.58 132.99-17.9 131.36-19.2 129.74-20.5 127.69-20.5L127.69-20.5Q124.89-20.5 123.24-18.2 121.59-15.9 121.59-11.95L121.59-11.95Q121.59-9 122.49-6.7 123.39-4.4 124.99-3.13 126.59-1.85 128.69-1.85L128.69-1.85ZM157.04-1.45Q158.54-1.85 159.19-2.63 159.84-3.4 159.84-4.7L159.84-4.7 160.04-14.6Q160.04-17.1 158.96-18.45 157.89-19.8 155.89-19.8L155.89-19.8Q154.29-19.8 152.64-18.98 150.99-18.15 149.74-17.2L149.74-17.2Q149.29-6.85 149.29-4.9L149.29-4.9Q149.29-3.35 149.69-2.73 150.09-2.1 151.09-2.1L151.09-2.1Q151.64-2.1 152.14-2.15 152.64-2.2 152.84-2.2L152.84-2.2 152.94-2 152.49 0.15Q152.04 0.1 150.74 0.05 149.44 0 147.94 0L147.94 0Q146.64 0 145.06 0.13 143.49 0.25 142.99 0.3L142.99 0.3 143.24-1.75Q144.69-2 145.29-2.65 145.89-3.3 145.89-4.7L145.89-4.7 145.89-16.9Q145.89-18.6 145.34-19.28 144.79-19.95 143.44-19.95L143.44-19.95 142.89-19.95 142.74-20.15 142.89-21.8Q145.04-22.15 147.16-22.63 149.29-23.1 149.89-23.25L149.89-23.25 150.19-22.85Q150.09-22.55 149.89-21.58 149.69-20.6 149.64-19.55L149.64-19.55 149.74-19.4Q155.44-23.2 157.09-23.2L157.09-23.2Q160.24-23.2 162.09-21.45 163.94-19.7 163.94-16.75L163.94-16.75Q163.94-16.25 163.64-12.15L163.64-12.15Q163.24-6.95 163.24-4.9L163.24-4.9Q163.24-3.45 163.64-2.78 164.04-2.1 164.99-2.1L164.99-2.1Q165.54-2.1 166.04-2.15 166.54-2.2 166.74-2.2L166.74-2.2 166.84-2 166.44 0.15Q165.99 0.1 164.74 0.05 163.49 0 161.99 0L161.99 0Q160.69 0 159.01 0.25 157.34 0.5 156.84 0.6L156.84 0.6 157.04-1.45ZM190.59 0.6Q186.69 0.6 186.14-2.95L186.14-2.95 185.78-3.1Q180.59 0.45 179.53 0.45L179.53 0.45Q176.69 0.45 174.49-0.88 172.28-2.2 171.09-4.6 169.89-7 169.89-10.1L169.89-10.1Q169.89-13.65 171.56-16.65 173.24-19.65 176.11-21.43 178.99-23.2 182.34-23.2L182.34-23.2Q183.94-23.2 185.78-23L185.78-23 185.78-31.3Q185.78-34 183.94-34L183.94-34Q183.59-34 183.19-33.93 182.78-33.85 182.69-33.8L182.69-33.8 182.89-35.65Q185.03-35.95 187.34-36.45 189.64-36.95 190.29-37.1L190.29-37.1 190.59-36.45Q190.04-35.6 189.61-25.9 189.19-16.2 189.19-5.25L189.19-5.25Q189.19-4.15 189.74-3.55 190.29-2.95 191.24-2.95L191.24-2.95Q191.94-2.95 192.61-3.23 193.29-3.5 193.71-3.8 194.14-4.1 194.24-4.2L194.24-4.2 194.94-3.4Q194.79-3.15 194.19-2.33 193.59-1.5 192.61-0.6 191.64 0.3 190.59 0.6L190.59 0.6ZM180.34-2.8Q181.39-2.8 182.61-3.4 183.84-4 184.69-4.63 185.53-5.25 185.78-5.45L185.78-5.45 185.78-19.15Q185.64-19.25 185.03-19.53 184.44-19.8 183.36-20.05 182.28-20.3 180.94-20.3L180.94-20.3Q177.59-20.3 175.66-18.03 173.74-15.75 173.74-11.8L173.74-11.8Q173.74-9.3 174.61-7.25 175.49-5.2 177.01-4 178.53-2.8 180.34-2.8L180.34-2.8ZM221.43 0.6Q217.03 0.6 213.73-1.3 210.43-3.2 208.63-6.68 206.83-10.15 206.83-14.85L206.83-14.85Q206.83-20 209.03-24 211.23-28 215.23-30.23 219.23-32.45 224.38-32.45L224.38-32.45Q226.23-32.45 228.38-32.18 230.53-31.9 232.08-31.63 233.63-31.35 234.08-31.25L234.08-31.25 234.28-30.95Q234.18-30.65 233.93-29.5 233.68-28.35 233.41-26.5 233.13-24.65 232.98-22.6L232.98-22.6 230.63-22.4Q230.68-22.65 230.73-23.38 230.78-24.1 230.78-25.1L230.78-25.1Q230.78-27.4 229.01-28.45 227.23-29.5 223.23-29.5L223.23-29.5Q217.53-29.5 214.36-26.08 211.18-22.65 211.18-16.45L211.18-16.45Q211.18-12.1 212.58-8.8 213.98-5.5 216.58-3.7 219.18-1.9 222.58-1.9L222.58-1.9Q224.38-1.9 225.88-2.33 227.38-2.75 228.41-3.25 229.43-3.75 229.43-3.8L229.43-3.8 229.43-9.9Q229.43-11.6 228.91-12.1 228.38-12.6 226.68-12.6L226.68-12.6 223.23-12.6 223.13-12.8 223.58-15.3Q224.18-15.25 226.13-15.18 228.08-15.1 229.93-15.1L229.93-15.1Q231.28-15.1 232.58-15.2 233.88-15.3 234.23-15.35L234.23-15.35 234.43-14.25Q233.53-13.5 233.21-11.88 232.88-10.25 232.88-6.55L232.88-6.55Q232.88-3.65 233.23-2.15L233.23-2.15 232.93-1.7Q232.93-1.65 231.16-1.03 229.38-0.4 226.81 0.1 224.23 0.6 221.43 0.6L221.43 0.6ZM240.13-1.8Q241.63-1.95 242.13-2.78 242.63-3.6 242.63-5.95L242.63-5.95 242.63-16.95Q242.63-18.6 242.18-19.3 241.73-20 240.73-20L240.73-20Q240.33-20 240.05-19.95 239.78-19.9 239.68-19.85L239.68-19.85 239.43-20.2 239.58-21.75Q241.48-22.1 243.6-22.6 245.73-23.1 246.33-23.25L246.33-23.25 246.68-22.95Q246.58-22.5 246.38-20.88 246.18-19.25 246.23-17.8L246.23-17.8 246.43-17.65Q247.93-20 249.95-21.5 251.98-23 253.48-23L253.48-23Q254.18-23 254.55-22.93 254.93-22.85 255.03-22.8L255.03-22.8 255.18-22.6Q255.08-21.9 254.75-19.63 254.43-17.35 254.38-15.45L254.38-15.45 252.43-15.3Q252.43-17.35 252.15-18.03 251.88-18.7 251.08-18.7L251.08-18.7Q249.98-18.7 248.73-17.78 247.48-16.85 246.43-15.3L246.43-15.3Q246.38-13.85 246.23-10.5 246.08-7.15 246.03-5.1L246.03-5.1Q246.03-3.4 246.53-2.8 247.03-2.2 248.43-2.2L248.43-2.2Q249.08-2.2 249.73-2.25 250.38-2.3 250.63-2.3L250.63-2.3 250.68-2.1 250.23 0.1Q249.73 0.1 248.23 0.05 246.73 0 245.13 0L245.13 0Q243.28 0 241.78 0.08 240.28 0.15 239.88 0.2L239.88 0.2 240.13-1.8ZM268.13 0.6Q265.02 0.6 262.63-0.78 260.22-2.15 258.93-4.67 257.63-7.2 257.63-10.45L257.63-10.45Q257.63-13.8 259.15-16.75 260.68-19.7 263.22-21.45 265.77-23.2 268.68-23.2L268.68-23.2Q272.32-23.2 274.22-21.35 276.13-19.5 276.13-15.95L276.13-15.95Q276.13-14.5 275.82-13.5L275.82-13.5 275.18-12.9 261.38-12.9Q261.32-8.05 263.3-5.43 265.27-2.8 268.82-2.8L268.82-2.8Q271.63-2.8 274.93-4.35L274.93-4.35 275.22-4.25 275.77-2.8Q273.97-1.5 271.8-0.45 269.63 0.6 268.13 0.6L268.13 0.6ZM261.57-14.75L270.63-15.2Q271.38-15.3 271.63-15.55 271.88-15.8 271.88-16.55L271.88-16.55Q271.88-18.55 270.8-19.6 269.72-20.65 267.72-20.65L267.72-20.65Q265.38-20.65 263.7-19.05 262.02-17.45 261.57-14.75L261.57-14.75ZM290.52 0.6Q287.42 0.6 285.02-0.78 282.62-2.15 281.32-4.67 280.02-7.2 280.02-10.45L280.02-10.45Q280.02-13.8 281.55-16.75 283.07-19.7 285.62-21.45 288.17-23.2 291.07-23.2L291.07-23.2Q294.72-23.2 296.62-21.35 298.52-19.5 298.52-15.95L298.52-15.95Q298.52-14.5 298.22-13.5L298.22-13.5 297.57-12.9 283.77-12.9Q283.72-8.05 285.7-5.43 287.67-2.8 291.22-2.8L291.22-2.8Q294.02-2.8 297.32-4.35L297.32-4.35 297.62-4.25 298.17-2.8Q296.37-1.5 294.2-0.45 292.02 0.6 290.52 0.6L290.52 0.6ZM283.97-14.75L293.02-15.2Q293.77-15.3 294.02-15.55 294.27-15.8 294.27-16.55L294.27-16.55Q294.27-18.55 293.2-19.6 292.12-20.65 290.12-20.65L290.12-20.65Q287.77-20.65 286.1-19.05 284.42-17.45 283.97-14.75L283.97-14.75ZM301.97 0.6L302.17-1.45Q303.57-1.85 304.14-2.45 304.72-3.05 304.84-3.9 304.97-4.75 304.97-6.75L304.97-6.75 304.97-31.3Q304.97-32.85 304.62-33.4 304.27-33.95 303.17-33.95L303.17-33.95Q302.92-33.95 302.02-33.85L302.02-33.85 301.87-33.95 302.07-35.65Q306.27-36.25 309.47-37.1L309.47-37.1 309.77-36.45Q309.22-35.6 308.79-25.75 308.37-15.9 308.37-4.9L308.37-4.9Q308.37-3.4 308.77-2.75 309.17-2.1 310.12-2.1L310.12-2.1 311.87-2.2 311.97-2 311.57 0.15Q308.27 0 307.12 0L307.12 0Q305.42 0 301.97 0.6L301.97 0.6ZM325.12 0.6Q322.02 0.6 319.62-0.78 317.22-2.15 315.92-4.67 314.62-7.2 314.62-10.45L314.62-10.45Q314.62-13.8 316.14-16.75 317.67-19.7 320.22-21.45 322.77-23.2 325.67-23.2L325.67-23.2Q329.32-23.2 331.22-21.35 333.12-19.5 333.12-15.95L333.12-15.95Q333.12-14.5 332.82-13.5L332.82-13.5 332.17-12.9 318.37-12.9Q318.32-8.05 320.29-5.43 322.27-2.8 325.82-2.8L325.82-2.8Q328.62-2.8 331.92-4.35L331.92-4.35 332.22-4.25 332.77-2.8Q330.97-1.5 328.79-0.45 326.62 0.6 325.12 0.6L325.12 0.6ZM318.57-14.75L327.62-15.2Q328.37-15.3 328.62-15.55 328.87-15.8 328.87-16.55L328.87-16.55Q328.87-18.55 327.79-19.6 326.72-20.65 324.72-20.65L324.72-20.65Q322.37-20.65 320.69-19.05 319.02-17.45 318.57-14.75L318.57-14.75ZM337.01 12.05Q336.61 12.05 335.71 10.88 334.81 9.7 334.81 9.2L334.81 9.2 335.06 8.85Q337.86 8.85 340.29 6.53 342.71 4.2 344.46 0L344.46 0Q340.61-12.2 338.26-18.4L338.26-18.4Q337.81-19.65 336.99-20.2 336.16-20.75 334.86-20.8L334.86-20.8 334.76-21 335.06-22.65 339.21-22.6Q341.06-22.6 342.89-22.75 344.71-22.9 345.21-22.95L345.21-22.95 345.31-22.7 345.01-21.15Q343.31-21.1 342.74-20.83 342.16-20.55 342.16-19.85L342.16-19.85Q342.16-19.05 343.14-15.7 344.11-12.35 345.16-9.03 346.21-5.7 346.56-4.7L346.56-4.7 346.76-4.7Q352.51-18.45 352.51-19.65L352.51-19.65Q352.51-20.95 350.61-20.95L350.61-20.95 348.31-20.95 348.21-21.15 348.51-22.8Q348.96-22.75 350.51-22.68 352.06-22.6 353.61-22.6L353.61-22.6 357.86-22.65 357.51-20.8Q356.41-20.6 355.84-20.03 355.26-19.45 354.71-17.95L354.71-17.95 348.36-2.75Q345.76 3.55 344.11 6.6 342.46 9.65 340.86 10.88 339.26 12.1 337.01 12.05L337.01 12.05Z" opacity="1" transform="matrix(1,0,0,1,0,0)" fill="#ffffff" class="undefined-text-0" data-fill-palette-color="primary" id="text-0"></path></svg></g></svg></g></svg></g></svg></g></svg></g></svg></g></svg></g></svg></g><defs></defs></svg><rect width="395.52" height="247.2" fill="none" stroke="none" visibility="hidden"></rect></g></svg></g></svg>