<svg xmlns="http://www.w3.org/2000/svg" version="1.1" xmlns:xlink="http://www.w3.org/1999/xlink" xmlns:svgjs="http://svgjs.dev/svgjs" width="128" height="128" viewBox="0 0 128 128"><g transform="matrix(0.8046875,0,0,0.8046875,12.333870967741937,12.333870967741937)"><svg viewBox="0 0 155 155" data-background-color="#282634" preserveAspectRatio="xMidYMid meet" height="128" width="128" xmlns="http://www.w3.org/2000/svg" xmlns:xlink="http://www.w3.org/1999/xlink"><g id="tight-bounds" transform="matrix(1,0,0,1,0.25,0.25)"><svg viewBox="0 0 154.5 154.5" height="154.5" width="154.5"><g><svg></svg></g><g><svg viewBox="0 0 154.5 154.5" height="154.5" width="154.5"><g transform="matrix(1,0,0,1,29.509500000000003,49.303316461267606)"><svg viewBox="0 0 95.481 55.89336707746479" height="55.89336707746479" width="95.481"><g><svg viewBox="0 0 95.481 55.89336707746479" height="55.89336707746479" width="95.481"><g><svg viewBox="0 0 95.481 55.89336707746479" height="55.89336707746479" width="95.481"><g><svg viewBox="0 0 95.481 55.89336707746479" height="55.89336707746479" width="95.481"><g><svg viewBox="0 0 95.481 55.89336707746479" height="55.89336707746479" width="95.481"><g transform="matrix(1,0,0,1,0,0)"><svg width="95.481" viewBox="2.85 -32.45 56.8 33.25" height="55.89336707746479" data-palette-color="#ffffff"><path d="M25.6 0.8Q24.35 0.8 22.93-0.48 21.5-1.75 20.3-3.95L20.3-3.95 14.95-13.65 10.8-13.65 10.65-6.2Q10.65-4.3 10.9-3.48 11.15-2.65 11.85-2.38 12.55-2.1 14.25-2.1L14.25-2.1 14.35-1.9 13.9 0.2Q13.3 0.15 11.5 0.1 9.7 0.05 7.75 0.05L7.75 0.05Q6 0.05 4.65 0.1 3.3 0.15 2.85 0.2L2.85 0.2 3.3-2.05Q4.9-2.25 5.7-2.6 6.5-2.95 6.8-3.73 7.1-4.5 7.1-6L7.1-6 7.15-27Q7.15-28.6 6.78-29.15 6.4-29.7 5.3-29.7L5.3-29.7Q4.8-29.7 4.3-29.65 3.8-29.6 3.6-29.6L3.6-29.6 3.5-29.8 3.85-32Q4.45-31.95 6.1-31.9 7.75-31.85 9.4-31.85L9.4-31.85Q11.1-31.85 12.98-31.93 14.85-32 15.55-32.05L15.55-32.05Q20.2-32.05 22.9-29.95 25.6-27.85 25.6-24.2L25.6-24.2Q25.6-21.2 23.68-18.7 21.75-16.2 18.25-14.6L18.25-14.6 23.75-5.9Q25.2-3.5 26.58-2.58 27.95-1.65 29.95-1.65L29.95-1.65 30.15-1.45 29.85 0.25 25.6 0.8ZM16.05-15.95Q16.05-15.8 17.55-16.6 19.05-17.4 20.25-19.05 21.45-20.7 21.45-23.3L21.45-23.3Q21.45-29.9 12.3-29.9L12.3-29.9Q11.8-29.9 11.63-29.68 11.45-29.45 11.4-28.75L11.4-28.75Q10.95-21.1 10.9-16.45L10.9-16.45 16.05-15.95ZM46.65 0.6Q42.25 0.6 38.95-1.3 35.65-3.2 33.85-6.68 32.05-10.15 32.05-14.85L32.05-14.85Q32.05-20 34.25-24 36.45-28 40.45-30.23 44.45-32.45 49.6-32.45L49.6-32.45Q51.45-32.45 53.6-32.18 55.75-31.9 57.3-31.63 58.85-31.35 59.3-31.25L59.3-31.25 59.5-30.95Q59.4-30.65 59.15-29.5 58.9-28.35 58.62-26.5 58.35-24.65 58.2-22.6L58.2-22.6 55.85-22.4Q55.9-22.65 55.95-23.38 56-24.1 56-25.1L56-25.1Q56-27.4 54.22-28.45 52.45-29.5 48.45-29.5L48.45-29.5Q42.75-29.5 39.57-26.08 36.4-22.65 36.4-16.45L36.4-16.45Q36.4-12.1 37.8-8.8 39.2-5.5 41.8-3.7 44.4-1.9 47.8-1.9L47.8-1.9Q49.6-1.9 51.1-2.33 52.6-2.75 53.62-3.25 54.65-3.75 54.65-3.8L54.65-3.8 54.65-9.9Q54.65-11.6 54.12-12.1 53.6-12.6 51.9-12.6L51.9-12.6 48.45-12.6 48.35-12.8 48.8-15.3Q49.4-15.25 51.35-15.18 53.3-15.1 55.15-15.1L55.15-15.1Q56.5-15.1 57.8-15.2 59.1-15.3 59.45-15.35L59.45-15.35 59.65-14.25Q58.75-13.5 58.42-11.88 58.1-10.25 58.1-6.55L58.1-6.55Q58.1-3.65 58.45-2.15L58.45-2.15 58.15-1.7Q58.15-1.65 56.37-1.03 54.6-0.4 52.02 0.1 49.45 0.6 46.65 0.6L46.65 0.6Z" opacity="1" transform="matrix(1,0,0,1,0,0)" fill="#ffffff" class="undefined-text-0" data-fill-palette-color="primary" id="text-0"></path></svg></g></svg></g></svg></g></svg></g></svg></g></svg></g><g><path d="M0 154.5v-154.5h154.5v154.5zM149.459 149.459v-144.418h-144.418v144.418z" fill="#00d1cd" fill-rule="nonzero" stroke="none" stroke-width="1" stroke-linecap="butt" stroke-linejoin="miter" stroke-miterlimit="10" stroke-dasharray="" stroke-dashoffset="0" font-family="none" font-weight="none" font-size="none" text-anchor="none" style="mix-blend-mode: normal" data-fill-palette-color="tertiary"></path></g></svg></g><defs></defs></svg><rect width="154.5" height="154.5" fill="none" stroke="none" visibility="hidden"></rect></g></svg></g></svg>